# xmcd
# Copyright (C) 1995-1998 Ti Kan
#
# Track frame offsets:
#       150
#       16489
#       31852
#       49296
#       61302
#
# Disc length: 939 seconds
#
# Revision: 0
# Processed by: cddbd v1.5.2PL0 Copyright (c) Steve Scherf et al.
# Submitted via: CD-Transfer v1.0
#
DISCID=3a03a905
DTITLE=Weihanchten 08 - 
DYEAR=08
DGENRE=
TTITLE0=Florian Fesl/Bald Ist Weihnacht 
TTITLE1=Florian Fesl/Immer Wenn Der Erste Schnee Fällt
TTITLE2=Florian Fesl/Über Nacht Hat Es Geschneit
TTITLE3=Florian Fesl/Liab´s  Kindl Im Stroh
TTITLE4=Florian Fesl/Winter Wunderland
EXTD=
EXTT0=
EXTT1=
EXTT2=
EXTT3=
EXTT4=
PLAYORDER=
